<svg version="1.0" xmlns="http://www.w3.org/2000/svg"
 width="120.000000pt" height="120.000000pt" viewBox="0 0 120.000000 120.000000"
 preserveAspectRatio="xMidYMid meet">

<g transform="translate(0.000000,120.000000) scale(0.100000,-0.100000)"
fill="#FFECB2" stroke="none">
<path d="M585 1131 c-3 -16 -19 -50 -35 -75 -26 -40 -34 -46 -64 -46 -19 0
-38 5 -41 10 -11 18 -23 10 -42 -27 -26 -55 -56 -56 -165 -9 l-36 16 24 -60
c13 -33 24 -72 24 -88 0 -31 -26 -62 -53 -62 -21 0 -32 -19 -18 -33 6 -6 11
-26 11 -43 0 -39 -28 -64 -100 -90 -28 -10 -50 -21 -50 -24 0 -3 22 -14 50
-24 73 -26 100 -51 100 -91 0 -19 -4 -37 -10 -40 -18 -11 -10 -23 27 -42 49
-23 53 -58 19 -142 l-24 -61 36 17 c20 9 58 21 84 26 41 9 50 8 68 -8 11 -10
20 -26 20 -36 0 -23 19 -34 33 -20 6 6 26 11 43 11 39 0 66 -30 91 -102 10
-26 20 -48 23 -48 3 0 12 17 19 38 7 20 24 54 37 74 20 32 30 38 59 38 18 0
37 -4 40 -10 11 -18 23 -10 42 28 23 48 58 52 142 18 l61 -24 -16 36 c-47 109
-46 139 9 165 37 19 45 31 27 42 -5 3 -10 21 -10 40 0 40 29 67 102 92 26 10
48 20 48 23 0 3 -22 13 -48 23 -73 25 -102 52 -102 92 0 19 4 37 10 40 18 11
10 26 -20 37 -56 19 -63 58 -26 147 l24 59 -60 -25 c-83 -33 -118 -29 -141 20
-19 37 -31 45 -42 27 -3 -5 -21 -10 -40 -10 -40 0 -65 27 -91 100 -21 57 -30
62 -39 21z m75 -226 c18 -16 21 -16 44 -2 26 17 36 13 36 -14 0 -36 35 -42 98
-16 l58 23 -23 -58 c-26 -63 -20 -98 16 -98 27 0 31 -10 14 -36 -14 -23 -14
-26 2 -44 10 -11 41 -28 69 -39 l51 -19 -40 -17 c-93 -37 -106 -52 -81 -90 16
-25 12 -35 -15 -35 -36 0 -41 -35 -16 -98 l24 -59 -58 24 c-68 27 -99 20 -99
-22 0 -29 -3 -30 -36 -9 -23 16 -26 15 -44 -1 -11 -10 -28 -41 -39 -69 l-19
-51 -17 40 c-37 93 -52 106 -90 81 -25 -16 -35 -12 -35 15 0 39 -59 41 -131 3
l-26 -13 24 59 c26 66 20 100 -19 100 -20 0 -21 8 -4 50 9 24 -7 39 -69 65
l-59 24 55 24 c67 30 84 48 70 76 -16 29 -13 41 9 41 35 0 42 33 20 91 -11 29
-18 54 -16 56 2 2 27 -5 55 -17 57 -22 91 -15 91 19 0 27 10 31 36 14 32 -20
49 -6 82 67 l24 55 19 -51 c11 -28 28 -59 39 -69z"/>
<path d="M580 929 c-17 -41 -52 -64 -78 -50 -16 8 -21 6 -30 -14 -9 -20 -19
-25 -46 -25 -19 0 -46 4 -59 9 l-24 9 13 -39 c16 -46 6 -84 -25 -94 -17 -5
-19 -10 -10 -26 14 -27 -12 -67 -52 -82 -16 -6 -29 -14 -29 -17 0 -3 13 -11
29 -17 40 -15 66 -55 52 -82 -9 -16 -7 -21 10 -26 31 -10 41 -48 24 -94 l-14
-40 25 9 c14 6 41 10 60 10 27 0 37 -5 46 -25 9 -20 14 -22 30 -14 26 14 67
-13 81 -52 14 -37 21 -36 37 2 17 41 52 64 78 50 16 -8 21 -6 30 14 9 20 19
25 46 25 19 0 46 -4 60 -10 l25 -9 -14 40 c-17 46 -7 84 24 94 17 5 19 10 10
26 -14 27 12 67 52 82 36 14 36 20 0 34 -40 15 -66 55 -52 82 9 16 7 21 -10
26 -27 9 -41 48 -29 81 15 39 14 41 -45 36 -51 -4 -55 -3 -66 21 -10 22 -15
24 -31 16 -26 -14 -67 13 -81 52 -14 37 -21 36 -37 -2z m30 -102 c0 -19 36
-50 51 -45 7 2 21 -4 31 -14 14 -14 23 -16 44 -8 33 13 37 9 24 -24 -8 -21 -6
-30 8 -44 10 -10 16 -24 14 -31 -5 -15 26 -51 45 -51 22 0 14 -17 -11 -24 -23
-6 -45 -41 -33 -53 3 -2 -3 -13 -14 -24 -15 -15 -17 -24 -9 -45 13 -33 9 -37
-24 -24 -21 8 -30 6 -44 -8 -9 -9 -27 -16 -40 -14 -18 3 -26 -3 -35 -27 -14
-39 -20 -39 -34 0 -9 24 -17 30 -35 27 -13 -2 -31 5 -40 14 -14 14 -23 16 -44
8 -33 -13 -37 -9 -24 24 8 21 6 30 -8 44 -9 9 -16 27 -14 40 3 18 -3 26 -27
35 -32 12 -42 27 -18 27 19 0 50 36 45 51 -2 7 4 21 14 31 14 14 16 23 8 44
-13 33 -9 37 24 24 21 -8 30 -6 44 8 10 10 24 16 31 14 15 -5 51 26 51 45 0 7
5 13 10 13 6 0 10 -6 10 -13z"/>
</g>
</svg>
